<svg version="1.2" xmlns="http://www.w3.org/2000/svg" viewBox="0 0 2000 2000" width="2000" height="2000"  stroke="#EAEAEA">
	<title>Azlhart Logo Upscaled - White - No Background</title>
	<style>
		.s0 { fill: #ffffff" } 
	</style>
	<path id="Path 0" fill-rule="evenodd" class="s0" d="m1378 542.98c0.83-0.02 2.21 0.76 3.09 1.74 0.87 0.98 2.11 3.13 2.75 4.78 0.64 1.65 2.04 7.05 3.11 12 1.06 4.95 2.65 15.52 3.52 23.5 0.87 7.98 2.27 20.58 3.11 28 0.84 7.42 2.62 20.02 3.95 28 1.33 7.98 3.34 19 4.47 24.5 1.12 5.5 3.44 14.95 5.16 21 1.71 6.05 5.1 15.95 7.54 22 2.43 6.05 6.61 14.83 9.27 19.5 2.67 4.67 7.98 12.55 11.81 17.5 3.83 4.95 10.06 11.96 13.84 15.58 3.78 3.62 9.58 8.58 12.88 11.01 3.3 2.43 10.05 6.52 15 9.1 4.95 2.57 13.05 6.01 18 7.63 4.95 1.63 13.5 3.72 19 4.66 6.31 1.08 15.16 1.69 24 1.66 7.7-0.02 18.72-0.76 24.5-1.63 5.78-0.88 13.88-2.28 18-3.12 4.13-0.84 11.78-2.6 17-3.91 5.22-1.31 14.67-3.94 21-5.85 6.33-1.91 22.75-7.62 36.5-12.67 13.75-5.06 33.33-12.57 43.5-16.69 10.17-4.12 26.15-10.31 35.5-13.76 9.35-3.46 26.45-9.24 38-12.85 11.55-3.62 26.4-7.93 33-9.57 6.6-1.65 16.61-3.92 22.25-5.04 5.64-1.13 11.71-2.06 13.5-2.07 1.79-0.01 3.8 0.56 4.47 1.25 0.97 1.01 0.61 1.84-1.75 4.02-1.63 1.51-5.56 4.41-8.72 6.44-3.16 2.04-11.15 6.8-17.75 10.6-6.6 3.8-26.74 14.06-44.75 22.81-18.01 8.74-32.97 15.9-33.25 15.9-0.28 0-12.76 6.04-27.75 13.42-14.99 7.37-36.03 18-46.75 23.61-10.72 5.61-28.5 15.17-39.5 21.24-11 6.07-25.63 14.42-32.5 18.55-6.88 4.13-16.33 9.96-21 12.96-4.67 3-11.65 7.75-15.5 10.55-3.85 2.81-9.47 7.07-12.5 9.48-3.03 2.41-11.51 9.85-18.85 16.54-7.34 6.68-23.5 22.95-35.91 36.15-12.42 13.2-26.71 28.95-31.76 35-5.04 6.05-11.63 14.37-14.63 18.5-2.99 4.12-7.66 10.87-10.36 15-2.7 4.12-7.54 12.67-10.75 19-3.2 6.33-7.61 17.01-9.79 23.75-2.17 6.74-4.83 17.54-5.91 24-1.08 6.46-2.63 18.05-3.46 25.75-0.82 7.7-1.98 21.65-2.57 31-0.59 9.35-1.73 23.97-2.52 32.5-0.79 8.53-2.11 27.42-2.93 42-0.82 14.58-2.62 44.72-4.01 67-1.38 22.28-3.21 50.85-4.07 63.5-0.86 12.65-2.2 28.62-2.98 35.5-0.78 6.87-2.33 15.54-3.46 19.25-1.12 3.71-2.75 7.42-3.61 8.25-0.87 0.82-2.22 1.5-3 1.5-0.79 0-2.32-1.46-3.41-3.25-1.09-1.79-2.65-6.17-3.45-9.75-0.81-3.58-2.39-13.7-3.51-22.5-1.13-8.8-2.72-25.67-3.55-37.5-0.82-11.83-2.16-30.5-2.96-41.5-0.81-11-1.95-29-2.54-40-0.59-11-1.73-26.53-2.53-34.5-0.8-7.97-2.34-19.67-3.43-26-1.1-6.33-3.15-16-4.58-21.5-1.42-5.5-3.92-14.05-5.56-19-1.64-4.95-5.44-14.06-8.44-20.25-4.29-8.83-6.92-12.78-12.22-18.35-5.18-5.45-8.61-8.01-14.75-11.01-4.53-2.21-11.91-4.75-17-5.84-4.95-1.06-14.4-2.41-21-3.01-8.62-0.79-15.52-0.79-24.5-0.02-6.88 0.6-15.88 1.78-20 2.63-4.13 0.85-8.63 2.13-10 2.85-1.38 0.72-3.47 2.37-4.65 3.65-1.19 1.29-2.59 3.93-3.11 5.85-0.55 2.01-0.76 14.56-0.5 29.5 0.4 23.11 0.16 28.78-2.19 51-1.79 17.01-3.18 26.12-4.34 28.5-1.25 2.55-2.36 3.5-4.11 3.5-1.73 0-2.91-0.98-4.22-3.5-1-1.92-2.7-9.35-3.77-16.5-1.08-7.15-3.1-19.97-4.51-28.5-1.4-8.53-3.45-21.35-4.56-28.5-1.1-7.15-2.52-14.8-3.16-17-0.63-2.2-2.44-5.24-4.02-6.75-2.25-2.17-3.81-2.75-7.36-2.75-2.47 0-7.54 1.16-11.25 2.58-3.71 1.42-11.47 4.27-17.25 6.35-5.78 2.08-17.25 5.84-25.5 8.37-8.25 2.52-22.2 6.39-31 8.59-8.8 2.21-20.05 4.69-25 5.52-4.95 0.83-13.95 2.03-20 2.68-6.67 0.71-17.49 0.94-27.5 0.58-9.08-0.32-21.9-1.49-28.5-2.61-6.6-1.11-17.17-3.42-23.5-5.14-6.33-1.71-16.67-5.13-23-7.58-6.33-2.46-16.67-7.02-23-10.15-6.32-3.13-16.9-9.25-23.5-13.6-9.02-5.94-14.98-10.91-24-20.02-9.42-9.51-13.5-14.55-19-23.48-3.87-6.29-8.34-12.28-10-13.39-2.26-1.53-4.1-1.91-7.5-1.57-2.82 0.29-7.3 2.05-12 4.71-4.13 2.34-11.55 7.13-16.5 10.65-4.95 3.52-15.52 12.17-23.5 19.23-7.98 7.06-19.54 18.45-25.71 25.31-6.16 6.86-14.62 16.75-18.79 21.97-4.18 5.22-10.43 13.78-13.91 19-3.47 5.22-8.78 14-11.79 19.5-3.01 5.5-11.13 20.8-18.05 34-6.92 13.2-14.68 28.95-17.24 35-2.57 6.05-5.71 15.05-7 20-1.28 4.95-3.49 15.97-4.92 24.5-1.42 8.53-3.72 27.42-5.11 42-1.39 14.58-3.89 38.42-5.55 53-1.66 14.58-3.86 32.58-4.9 40-1.04 7.42-3.04 18.45-4.44 24.5-1.4 6.05-3.02 12.58-3.59 14.5-0.57 1.92-1.71 4.51-2.52 5.75-0.81 1.24-2.27 2.26-3.23 2.28-0.96 0.02-2.48-0.77-3.37-1.75-0.9-0.98-2.11-3.36-2.7-5.28-0.6-1.92-2.2-8.9-3.56-15.5-1.36-6.6-3.17-18.75-4.02-27-0.86-8.25-2.92-24.45-4.59-36-1.67-11.55-3.95-25.72-5.06-31.5-1.1-5.78-3.32-15.67-4.91-22-1.6-6.33-4.12-14.88-5.6-19-1.48-4.13-4.62-11.55-6.97-16.5-2.35-4.95-7.52-13.95-11.49-20-4.97-7.58-10.52-14.28-17.85-21.57-5.84-5.81-14.23-12.98-18.63-15.93-4.4-2.95-12.05-7.31-17-9.68-4.95-2.38-13.5-5.46-19-6.84-5.5-1.38-15.18-3.01-21.5-3.61-8.36-0.8-15.18-0.8-25 0-7.43 0.61-17.55 1.79-22.5 2.63-4.95 0.84-15.52 3.13-23.5 5.09-7.98 1.97-23.05 6.41-33.5 9.87-10.45 3.46-28 9.67-39 13.81-11 4.14-29.23 11.22-40.5 15.74-11.27 4.52-32.43 12.23-47 17.14-14.57 4.91-34.38 11.2-44 13.99-9.63 2.78-22.22 6.14-28 7.45-5.78 1.32-12.86 2.4-15.75 2.4-2.89 0.01-5.93-0.21-6.75-0.49-0.82-0.28-1.5-0.95-1.5-1.5 0-0.55 0.56-1.59 1.25-2.32 0.69-0.73 4.18-3.47 7.75-6.09 3.57-2.63 21.57-12.29 40-21.47 18.43-9.18 44.75-22.05 58.5-28.59 13.75-6.55 39.85-19.39 58-28.55 18.15-9.16 42.68-21.96 54.5-28.45 11.82-6.49 28.25-15.86 36.5-20.82 8.25-4.96 21.07-13.07 28.5-18.01 7.43-4.94 17.1-11.68 21.5-14.98 4.4-3.3 22.18-20.22 39.52-37.61 17.33-17.38 36.26-37.24 42.07-44.11 5.8-6.88 14.17-17.23 18.59-23 4.42-5.77 10.29-14.1 13.04-18.5 2.75-4.4 7.03-12.05 9.51-17 2.49-4.95 6.2-13.5 8.26-19 2.05-5.5 4.78-14.95 6.06-21 1.28-6.05 3.03-17.3 3.88-25 0.86-7.7 2.24-23.67 3.08-35.5 0.83-11.83 1.95-25.55 2.47-30.5 0.52-4.95 1.41-14.85 1.98-22 0.56-7.15 1.71-25.6 2.54-41 0.84-15.4 2.39-40.38 3.46-55.5 1.06-15.13 2.42-36.5 3.01-47.5 0.6-11 1.54-25.85 2.11-33 0.56-7.15 1.72-16.38 2.57-20.5 0.86-4.13 2.52-9.44 3.7-11.81 1.18-2.37 2.94-4.51 3.9-4.75 0.96-0.24 2.2-0.21 2.75 0.06 0.55 0.27 1.62 1.96 2.37 3.75 0.75 1.79 2.33 7.64 3.5 13 1.17 5.36 3.23 20.44 4.58 33.5 1.35 13.06 3.14 31.85 3.97 41.75 0.83 9.9 2 27.9 2.59 40 0.59 12.1 1.51 26.95 2.05 33 0.54 6.05 1.67 16.4 2.5 23 0.84 6.6 2.2 16.05 3.04 21 0.84 4.95 2.82 14.17 4.41 20.5 1.58 6.33 4.29 15.55 6.02 20.5 1.72 4.95 5.45 13.73 8.27 19.5 3.88 7.92 6.75 12.18 11.67 17.34 4.67 4.9 8.52 7.82 13.53 10.25 3.85 1.88 10.37 4.27 14.5 5.32 4.12 1.05 11.33 2.47 16 3.16 4.67 0.69 14.58 1.23 22 1.2 7.42-0.04 18-0.8 23.5-1.69 5.5-0.89 12.02-2.27 14.5-3.05 2.65-0.83 5.84-2.88 7.75-4.97 1.79-1.96 3.32-4.57 3.4-5.81 0.09-1.24 0.24-14.4 0.35-29.25 0.14-19.69 0.76-32.01 2.28-45.5 1.15-10.17 2.91-20.98 3.9-24 1.4-4.23 2.28-5.5 3.82-5.5 1.38 0 2.69 1.4 4.21 4.5 1.21 2.48 3.1 9 4.21 14.5 1.1 5.5 4.04 22.04 6.54 36.75 2.5 14.71 5.24 28.44 6.1 30.5 0.85 2.06 2.54 4.77 3.75 6.03 1.2 1.25 3.54 2.54 5.19 2.85 2.09 0.41 6.62-0.68 15-3.61 6.6-2.3 19.87-6.83 29.5-10.06 9.62-3.22 25.37-7.88 35-10.35 9.62-2.47 22.67-5.41 29-6.52 6.33-1.12 16.23-2.5 22-3.07 5.77-0.57 16.24-1.03 23.25-1.03 7.01 0.01 17.14 0.48 22.5 1.06 5.36 0.58 15.26 2.16 22 3.5 6.74 1.35 17.31 4.09 23.5 6.09 6.19 2 15.97 5.62 21.75 8.04 5.78 2.42 14.78 6.69 20 9.48 5.22 2.8 14.22 8.28 20 12.19 6.12 4.14 14.71 11.28 20.59 17.13 7.38 7.32 12.5 13.66 19 23.52 6.65 10.08 9.8 13.95 12.41 15.27 2.92 1.48 4.25 1.6 8 0.74 2.47-0.58 9-3.79 14.5-7.15 5.5-3.36 13.6-8.82 18-12.14 4.4-3.32 11.37-8.97 15.5-12.55 4.12-3.59 11.25-10.15 15.83-14.59 4.58-4.45 12.5-12.81 17.59-18.58 5.09-5.77 12.64-15 16.78-20.5 4.14-5.5 10-13.83 13.03-18.5 3.03-4.67 8.42-13.9 11.98-20.5 3.57-6.6 11.45-21.67 17.53-33.5 6.08-11.83 13.11-26.67 15.62-33 2.51-6.33 5.69-16.23 7.07-22 1.39-5.77 3.19-14.77 4.01-20 0.82-5.23 2.86-22.77 4.54-39 1.68-16.23 4.16-39.4 5.51-51.5 1.35-12.1 3.38-30.55 4.51-41 1.14-10.45 3.2-23.73 4.58-29.5 1.39-5.77 3.45-12.51 4.59-14.97 1.14-2.45 2.58-4.81 3.2-5.23 0.62-0.42 1.8-0.79 2.63-0.82zm-386 431.05c-6.33 1.12-18.25 3.79-26.5 5.94-8.25 2.14-22.42 6.23-31.5 9.08-9.08 2.84-18.3 6.08-20.5 7.18-2.2 1.1-4.8 2.74-5.78 3.64-0.98 0.89-1.79 2.75-1.8 4.13-0.01 1.68 1.4 3.8 4.28 6.44 2.37 2.17 7.9 5.64 12.3 7.72 4.4 2.07 11.83 4.87 16.5 6.22 4.67 1.35 13.23 3.01 19 3.7 8.37 1.01 13.13 1.01 23.5 0.03 7.15-0.68 18.85-2.35 26-3.72 7.15-1.37 19.75-4.24 28-6.37 8.25-2.13 21.75-5.97 30-8.54 8.25-2.57 16.8-5.58 19-6.69 2.2-1.11 5.02-2.98 6.28-4.15 1.25-1.18 2.28-3.04 2.28-4.14 0.01-1.1-1.02-3.3-2.28-4.89-1.25-1.58-4.98-4.38-8.28-6.21-3.3-1.83-9.6-4.65-14-6.27-4.4-1.62-11.6-3.62-16-4.46-4.4-0.83-13.17-1.74-19.5-2.02-6.33-0.27-15.55-0.09-20.5 0.42-4.95 0.51-14.17 1.84-20.5 2.96z"/>
</svg>