<svg width="234" height="234" viewBox="0 0 234 234" fill="none" xmlns="http://www.w3.org/2000/svg">
<g filter="url(#filter0_i_190_3401)">
<path d="M117.37 97.2C112.099 97.2 107.044 99.2861 103.317 102.999C99.5902 106.713 97.4963 111.749 97.4963 117C97.4963 127.098 96.5026 141.849 94.9127 156.6M137.245 128.088C137.245 151.65 137.245 191.25 127.307 216M169.937 206.298C171.13 200.358 174.21 183.528 174.906 176.4M18 117C18 96.2216 24.5622 75.97 36.7569 59.1137C48.9517 42.2574 66.1609 29.6511 85.9467 23.0804C105.733 16.5097 127.092 16.3077 146.999 22.5032C166.907 28.6986 184.353 40.9773 196.867 57.6M18 156.6H18.0994M214.753 156.6C216.741 136.8 216.055 103.595 214.753 97.2M47.8111 191.25C52.7797 176.4 57.7482 146.7 57.7482 117C57.7381 110.257 58.8807 103.561 61.1268 97.2M84.0813 216C86.1681 209.466 88.553 202.932 89.7455 196.2M87.5593 65.52C96.6258 60.3049 106.911 57.5602 117.38 57.5619C127.849 57.5636 138.133 60.3116 147.198 65.5295C156.263 70.7475 163.789 78.2514 169.019 87.2867C174.249 96.3219 176.999 106.57 176.993 117V136.8" stroke="white" stroke-width="36" stroke-linecap="round" stroke-linejoin="round"/>
</g>
<defs>
<filter id="filter0_i_190_3401" x="0" y="0" width="238" height="242.005" filterUnits="userSpaceOnUse" color-interpolation-filters="sRGB">
<feFlood flood-opacity="0" result="BackgroundImageFix"/>
<feBlend mode="normal" in="SourceGraphic" in2="BackgroundImageFix" result="shape"/>
<feColorMatrix in="SourceAlpha" type="matrix" values="0 0 0 0 0 0 0 0 0 0 0 0 0 0 0 0 0 0 127 0" result="hardAlpha"/>
<feOffset dx="4" dy="8"/>
<feGaussianBlur stdDeviation="6"/>
<feComposite in2="hardAlpha" operator="arithmetic" k2="-1" k3="1"/>
<feColorMatrix type="matrix" values="0 0 0 0 0 0 0 0 0 0 0 0 0 0 0 0 0 0 0.25 0"/>
<feBlend mode="normal" in2="shape" result="effect1_innerShadow_190_3401"/>
</filter>
</defs>
</svg>
