<svg width="236" height="236" viewBox="0 0 236 236" fill="none" xmlns="http://www.w3.org/2000/svg">
<g filter="url(#filter0_i_332_23)">
<path d="M131.999 18.0015H57.9997C52.6954 18.0015 47.6084 20.1086 43.8577 23.8593C40.107 27.61 37.9999 32.697 37.9999 38.0013V198C37.9999 203.304 40.107 208.391 43.8577 212.142C47.6084 215.893 52.6954 218 57.9997 218H177.999C183.303 218 188.39 215.893 192.141 212.142C195.892 208.391 197.999 203.304 197.999 198V124.001M18 58.0012H57.9997M18 98.0009H57.9997M18 138.001H57.9997M18 178H57.9997M211.779 54.2612C215.762 50.2777 218 44.8749 218 39.2413C218 33.6078 215.762 28.205 211.779 24.2214C207.795 20.2379 202.392 18 196.759 18C191.125 18 185.722 20.2379 181.739 24.2214L131.639 74.3411C129.262 76.7173 127.521 79.6544 126.579 82.881L118.209 111.581C117.958 112.441 117.943 113.353 118.166 114.222C118.388 115.09 118.84 115.882 119.474 116.516C120.108 117.15 120.9 117.602 121.768 117.824C122.637 118.047 123.549 118.032 124.409 117.781L153.109 109.411C156.336 108.469 159.273 106.728 161.649 104.351L211.779 54.2612Z" stroke="white" stroke-width="36" stroke-linecap="round" stroke-linejoin="round"/>
</g>
<defs>
<filter id="filter0_i_332_23" x="0" y="0" width="240" height="244" filterUnits="userSpaceOnUse" color-interpolation-filters="sRGB">
<feFlood flood-opacity="0" result="BackgroundImageFix"/>
<feBlend mode="normal" in="SourceGraphic" in2="BackgroundImageFix" result="shape"/>
<feColorMatrix in="SourceAlpha" type="matrix" values="0 0 0 0 0 0 0 0 0 0 0 0 0 0 0 0 0 0 127 0" result="hardAlpha"/>
<feOffset dx="4" dy="8"/>
<feGaussianBlur stdDeviation="6"/>
<feComposite in2="hardAlpha" operator="arithmetic" k2="-1" k3="1"/>
<feColorMatrix type="matrix" values="0 0 0 0 0 0 0 0 0 0 0 0 0 0 0 0 0 0 0.25 0"/>
<feBlend mode="normal" in2="shape" result="effect1_innerShadow_332_23"/>
</filter>
</defs>
</svg>
